<svg width="256" height="256" viewBox="0 0 256 256" fill="none" xmlns="http://www.w3.org/2000/svg">
<path d="M114.536 13.6929C123.115 8.76902 133.685 8.76902 142.264 13.6929L220.936 58.8481C229.515 63.772 234.8 72.8718 234.8 82.7196V173.03C234.8 182.878 229.515 191.978 220.936 196.901L142.264 242.057C133.685 246.981 123.115 246.981 114.536 242.057L35.8636 196.901C27.2848 191.978 22 182.878 22 173.03V82.7196C22 72.8718 27.2848 63.772 35.8636 58.8481L114.536 13.6929Z" fill="white"/>
<path d="M114.536 13.6761C123.115 8.77463 133.685 8.77463 142.264 13.6761L220.936 58.6267C229.515 63.5282 234.8 72.5872 234.8 82.3901V172.291C234.8 182.094 229.864 193.225 216 193C202.136 192.775 183.103 188.029 154.249 168.639C125.394 149.25 108.563 132.719 124.793 109.969C141.024 87.2192 152.445 126.732 160.26 126.732C168.075 126.732 171.681 100.098 165.67 90.2125C159.659 80.3273 139.22 69.3085 124.793 71.6535C110.366 73.9985 92.9333 82.3902 84.5175 106.976C76.1017 131.561 79.6436 193.251 41 193C27.1364 192.91 22 182.094 22 172.291V82.3901C22 72.5872 27.2848 63.5282 35.8636 58.6267L114.536 13.6761Z" fill="#4592FF"/>
</svg>
